<svg xmlns="http://www.w3.org/2000/svg" width="17" height="17" viewBox="0 0 17 17" fill="none">
  <g clip-path="url(#clip0_446_982)">
    <path d="M11.1666 4.68856V12.3552C11.1666 13.8286 9.97325 15.0219 8.49992 15.0219C7.02659 15.0219 5.83325 13.8286 5.83325 12.3552V4.02189C5.83325 3.10189 6.57992 2.35522 7.49992 2.35522C8.41992 2.35522 9.16659 3.10189 9.16659 4.02189V11.0219C9.16659 11.3886 8.86659 11.6886 8.49992 11.6886C8.13325 11.6886 7.83325 11.3886 7.83325 11.0219V4.68856H6.83325V11.0219C6.83325 11.9419 7.57992 12.6886 8.49992 12.6886C9.41992 12.6886 10.1666 11.9419 10.1666 11.0219V4.02189C10.1666 2.54856 8.97325 1.35522 7.49992 1.35522C6.02659 1.35522 4.83325 2.54856 4.83325 4.02189V12.3552C4.83325 14.3819 6.47325 16.0219 8.49992 16.0219C10.5266 16.0219 12.1666 14.3819 12.1666 12.3552V4.68856H11.1666Z" fill="white"/>
  </g>
  <defs>
    <clipPath id="clip0_446_982">
      <rect width="16" height="16" fill="white" transform="translate(0.5 0.688477)"/>
    </clipPath>
  </defs>
</svg>